HIERARCHY
ROOT root
{
	OFFSET 0.000000 0.000000 0.000000
	CHANNELS 6 Xposition Yposition Zposition Zrotation Yrotation Xrotation
	JOINT lhip
	{
		OFFSET 0.058581 -0.082280 -0.017664
		CHANNELS 3 Zrotation Yrotation Xrotation
		JOINT lknee
		{
			OFFSET 0.043451 -0.386469 0.008037
			CHANNELS 3 Zrotation Yrotation Xrotation
			JOINT lankle
			{
				OFFSET -0.014790 -0.426874 -0.037428
				CHANNELS 3 Zrotation Yrotation Xrotation
				JOINT ltoe
				{
					OFFSET 0.041054 -0.060286 0.122042
					CHANNELS 3 Zrotation Yrotation Xrotation
					End Site
					{
						OFFSET 0.000000 0.000000 0.000000
					}
				}
			}
		}
	}
	JOINT rhip
	{
		OFFSET -0.060310 -0.090513 -0.013543
		CHANNELS 3 Zrotation Yrotation Xrotation
		JOINT rknee
		{
			OFFSET -0.043257 -0.383688 -0.004843
			CHANNELS 3 Zrotation Yrotation Xrotation
			JOINT rankle
			{
				OFFSET 0.019056 -0.420046 -0.034562
				CHANNELS 3 Zrotation Yrotation Xrotation
				JOINT rtoe
				{
					OFFSET -0.034840 -0.062106 0.130323
					CHANNELS 3 Zrotation Yrotation Xrotation
					End Site
					{
						OFFSET 0.000000 0.000000 0.000000
					}
				}
			}
		}
	}
	JOINT lowerback
	{
		OFFSET 0.004439 0.124404 -0.038385
		CHANNELS 3 Zrotation Yrotation Xrotation
		JOINT upperback
		{
			OFFSET 0.004488 0.137956 0.026820
			CHANNELS 3 Zrotation Yrotation Xrotation
			JOINT chest
			{
				OFFSET -0.002265 0.056032 0.002855
				CHANNELS 3 Zrotation Yrotation Xrotation
				JOINT lowerneck
				{
					OFFSET -0.013390 0.211636 -0.033468
					CHANNELS 3 Zrotation Yrotation Xrotation
					JOINT upperneck
					{
						OFFSET 0.010113 0.088937 0.050410
						CHANNELS 3 Zrotation Yrotation Xrotation
						End Site
						{
							OFFSET 0.000000 0.000000 0.000000
						}
					}
				}
				JOINT lclavicle
				{
					OFFSET 0.071702 0.114000 -0.018898
					CHANNELS 3 Zrotation Yrotation Xrotation
					JOINT lshoulder
					{
						OFFSET 0.122921 0.045205 -0.019046
						CHANNELS 3 Zrotation Yrotation Xrotation
						JOINT lelbow
						{
							OFFSET 0.255332 -0.015649 -0.022946
							CHANNELS 3 Zrotation Yrotation Xrotation
							JOINT lwrist
							{
								OFFSET 0.265709 0.012698 -0.007375
								CHANNELS 3 Zrotation Yrotation Xrotation
								End Site
								{
									OFFSET 0.000000 0.000000 0.000000
								}
							}
						}
					}
				}
				JOINT rclavicle
				{
					OFFSET -0.082954 0.112472 -0.023707
					CHANNELS 3 Zrotation Yrotation Xrotation
					JOINT rshoulder
					{
						OFFSET -0.113228 0.046853 -0.008472
						CHANNELS 3 Zrotation Yrotation Xrotation
						JOINT relbow
						{
							OFFSET -0.260127 -0.014369 -0.031269
							CHANNELS 3 Zrotation Yrotation Xrotation
							JOINT rwrist
							{
								OFFSET -0.269108 0.006794 -0.006027
								CHANNELS 3 Zrotation Yrotation Xrotation
								End Site
								{
									OFFSET 0.000000 0.000000 0.000000
								}
							}
						}
					}
				}
			}
		}
	}
}
MOTION
Frames: 7
Frame Time: 0.033333
-0.293354 0.775597 0.731777 80.634296 -6.422508 100.580637 4.721709 -7.584560 -71.154454 2.885480 16.989776 86.573148 5.978322 15.669739 -39.135150 0.000000 -0.000000 0.000000 -14.024522 -10.127069 -77.121611 -8.881591 -13.892846 99.126225 4.428791 -9.593206 -32.842895 0.000000 -0.000000 0.000000 8.544278 -8.696002 79.873011 -2.996733 7.377111 -12.230930 1.551231 6.341031 5.269158 -11.079935 -25.854093 -4.908581 6.889211 -15.712699 -4.145226 -13.566095 -21.130366 -13.502910 -31.334491 -34.146674 5.716262 143.445459 -51.141684 -113.053263 42.581574 -21.306043 -13.352765 8.520303 33.694848 1.780663 -2.470275 8.982871 -18.764661 -24.001968 31.364946 -26.223779 -36.002636 28.064797 10.733719 
-0.292396 0.776011 0.743088 80.724758 -6.160727 99.728137 4.142061 -7.833758 -68.783289 2.454203 16.456647 84.506173 6.056770 15.871056 -38.685610 0.000000 -0.000000 0.000000 -13.519135 -9.524456 -74.863949 -8.460552 -13.707174 97.080014 4.398214 -10.209170 -32.405875 0.000000 -0.000000 0.000000 8.582663 -8.569701 77.910738 -2.739392 7.056702 -11.461892 1.489468 6.194973 5.181773 -11.367798 -25.774088 -4.509982 6.691611 -15.576553 -4.082060 -13.687167 -21.132457 -13.402103 -30.681711 -34.065314 5.674048 142.538486 -51.681774 -112.871546 42.294548 -21.280649 -13.165049 9.022187 33.389033 1.796222 -2.533036 8.823263 -18.185696 -24.756571 32.576175 -26.496807 -35.032224 28.101011 11.490852 
-0.291091 0.776672 0.756276 80.898933 -5.878797 98.858643 3.498873 -8.057373 -66.113307 1.958014 15.909638 82.040402 6.151860 16.032065 -38.149393 0.000000 -0.000000 0.000000 -12.992425 -9.169913 -72.263936 -7.971845 -13.644842 94.700261 4.367699 -10.645866 -31.974017 0.000000 -0.000000 0.000000 8.818917 -8.267763 75.458915 -2.367447 6.764788 -10.536397 1.534853 5.858078 5.145288 -11.407307 -25.797096 -4.302642 6.312949 -15.568786 -3.910338 -13.908481 -21.123742 -13.211166 -30.521880 -34.200629 5.810834 141.858639 -52.264614 -112.679236 41.964004 -21.322305 -12.904943 9.295832 32.831997 1.497577 -2.707131 8.865715 -17.734846 -25.236167 33.622871 -26.520348 -34.043196 28.189483 12.317213 
-0.289463 0.777213 0.771296 81.012233 -5.503357 97.917439 2.830274 -8.029256 -63.038057 1.383194 15.324241 79.172665 6.164580 16.061764 -37.579980 0.000000 -0.000000 0.000000 -12.346000 -8.909272 -69.317870 -7.413964 -13.648118 92.012787 4.474235 -10.862808 -31.569800 0.000000 -0.000000 0.000000 9.391293 -7.093011 72.605625 -1.801279 7.315551 -9.163646 2.145914 4.900818 5.023105 -10.924363 -26.256740 -4.727892 5.405359 -15.918129 -3.531548 -14.427603 -21.723704 -12.530500 -31.145699 -35.109384 6.374512 141.095996 -52.821937 -112.100943 41.670369 -21.741152 -12.243731 8.716659 31.539694 0.116227 -2.737239 8.808112 -16.908085 -25.404238 34.482492 -26.811097 -32.834063 28.332148 13.099964 
-0.287485 0.777544 0.787045 80.958460 -5.118178 97.203013 2.252796 -7.732965 -59.995649 0.772871 14.807075 76.089917 6.198067 15.958670 -36.967735 0.000000 -0.000000 0.000000 -11.659417 -8.631419 -66.503033 -6.937641 -13.686414 89.194041 4.456161 -10.912720 -31.095296 0.000000 -0.000000 0.000000 9.482185 -6.355209 69.760315 -1.524380 7.386087 -8.303479 2.308579 4.448242 5.046858 -10.454083 -26.282768 -5.217616 4.751279 -16.167371 -2.882980 -14.516576 -21.840210 -12.169374 -31.884080 -35.625177 6.820689 140.705978 -53.246755 -111.531608 41.517157 -21.920437 -11.975031 8.399046 30.835549 -0.562856 -2.396554 9.073150 -16.400348 -26.068521 35.024098 -26.974812 -32.115802 28.175792 13.188696 
-0.285130 0.777955 0.803603 80.761130 -4.693147 96.528969 1.797610 -7.312637 -56.831852 0.109921 14.308881 72.832632 6.214730 15.886725 -36.327100 0.000000 -0.000000 0.000000 -10.943895 -8.340665 -63.632288 -6.383933 -13.780590 86.113084 4.327497 -10.961954 -30.461624 0.000000 -0.000000 0.000000 9.184556 -6.262836 67.149399 -1.576397 6.875108 -7.797140 1.989139 4.620216 5.095365 -10.228410 -25.952169 -5.455964 4.531571 -16.182231 -2.305309 -14.405602 -21.354786 -12.317227 -32.327373 -35.578489 7.146201 140.612637 -53.557895 -111.400804 41.588914 -21.794276 -11.947411 8.591789 30.765038 -0.520740 -2.198422 9.510359 -16.346319 -26.692459 35.375028 -26.948534 -31.746532 27.950325 13.160948 
-0.282486 0.778353 0.820689 80.484616 -4.208235 95.823427 1.479867 -6.953951 -53.546377 -0.434062 13.814086 69.493811 6.160844 15.805286 -35.678742 0.000000 -0.000000 0.000000 -10.134230 -7.911657 -60.657552 -5.845437 -13.777119 82.844216 4.221434 -11.070187 -29.785888 0.000000 -0.000000 0.000000 8.892899 -6.216462 64.619242 -1.677999 6.440575 -7.219450 1.653662 4.827470 5.057400 -10.006428 -25.592127 -5.784647 4.258432 -16.189196 -1.674105 -14.359332 -20.826585 -12.505795 -32.745641 -35.446459 7.545433 140.541913 -53.794556 -111.367366 41.393048 -21.746893 -11.862419 8.810066 30.729686 -0.532506 -2.157385 9.978077 -16.260893 -27.146399 35.682104 -26.897649 -31.240021 27.733357 13.248455 
